<svg width="228" height="105" viewBox="0 0 228 105" fill="none" xmlns="http://www.w3.org/2000/svg">
<path d="M65.41 27.5L73.7413 35.6375L52.3125 52.6875L48.4375 48.8125L65.3713 27.5H65.41ZM65.41 19.75C64.2649 19.7424 63.1324 19.9887 62.0939 20.4711C61.0553 20.9535 60.1366 21.6601 59.4038 22.54L37.975 49.3938L51.6925 63.1113L78.585 41.7213C82.0725 38.7763 82.3438 33.4675 79.0888 30.2125L70.9125 22.0363C69.3625 20.4863 67.3863 19.75 65.41 19.75ZM35.2625 52.145L32.5113 54.8963C31.7847 55.6354 31.3776 56.6304 31.3776 57.6669C31.3776 58.7033 31.7847 59.6983 32.5113 60.4375L40.6875 68.575C41.5013 69.35 42.47 69.6988 43.4775 69.6988C44.485 69.6988 45.4538 69.35 46.2288 68.575L48.9413 65.8625L35.2625 52.145ZM23.25 70.125C21.1188 70.125 19.375 71.8688 19.375 74C19.375 76.1313 21.1188 77.875 23.25 77.875C25.3813 77.875 27.125 76.1313 27.125 74C27.125 71.8688 25.3813 70.125 23.25 70.125ZM34.875 74C32.7438 74 31 75.7438 31 77.875C31 80.0063 32.7438 81.75 34.875 81.75C37.0063 81.75 38.75 80.0063 38.75 77.875C38.75 75.7438 37.0063 74 34.875 74ZM15.5 81.75C13.3688 81.75 11.625 83.4938 11.625 85.625C11.625 87.7563 13.3688 89.5 15.5 89.5C17.6313 89.5 19.375 87.7563 19.375 85.625C19.375 83.4938 17.6313 81.75 15.5 81.75ZM27.125 85.625C24.9938 85.625 23.25 87.3688 23.25 89.5C23.25 91.6313 24.9938 93.375 27.125 93.375C29.2563 93.375 31 91.6313 31 89.5C31 87.3688 29.2563 85.625 27.125 85.625Z" fill="#F24E1E"/>
<path d="M106.4 14.48C105.2 14.48 104.2 14.8533 103.4 15.6C102.6 16.32 102.2 17.3467 102.2 18.68C102.2 20.0133 102.533 21.2133 103.2 22.28C103.893 23.32 104.733 24.2133 105.72 24.96C106.733 25.68 107.827 26.4667 109 27.32C110.2 28.1733 111.293 28.9867 112.28 29.76C113.293 30.5067 114.133 31.44 114.8 32.56C115.493 33.68 115.84 34.8667 115.84 36.12C115.84 38.6 114.827 40.7067 112.8 42.44C110.773 44.1467 108.107 45 104.8 45C101.52 45 98.92 44.2933 97 42.88C95.08 41.4667 94.12 39.8667 94.12 38.08C94.12 36.2933 94.6533 34.9067 95.72 33.92C96.7867 32.9067 98.16 32.4 99.84 32.4C100.32 32.4 100.773 32.4533 101.2 32.56C100.373 33.7867 99.96 35.12 99.96 36.56C99.96 37.9733 100.4 39.2 101.28 40.24C102.16 41.2533 103.32 41.76 104.76 41.76C106.227 41.76 107.453 41.3867 108.44 40.64C109.427 39.8667 109.92 38.8933 109.92 37.72C109.92 36.52 109.587 35.4667 108.92 34.56C108.253 33.6533 107.427 32.88 106.44 32.24C105.453 31.5733 104.373 30.8267 103.2 30C102.027 29.1467 100.947 28.2933 99.96 27.44C98.9733 26.5867 98.1467 25.5067 97.48 24.2C96.8133 22.8667 96.48 21.4133 96.48 19.84C96.48 17.3067 97.4 15.2933 99.24 13.8C101.08 12.28 103.56 11.52 106.68 11.52C109.8 11.52 112.16 12.2267 113.76 13.64C115.387 15.0267 116.2 16.52 116.2 18.12C116.2 19.6933 115.693 21.0267 114.68 22.12C113.667 23.1867 112.293 23.72 110.56 23.72C109.973 23.72 109.4 23.6667 108.84 23.56C110.147 22.1733 110.8 20.72 110.8 19.2C110.8 17.6533 110.373 16.48 109.52 15.68C108.667 14.88 107.627 14.48 106.4 14.48ZM125.596 36.44C125.596 37.6933 125.823 38.72 126.276 39.52C126.756 40.2933 127.423 40.68 128.276 40.68C129.53 40.68 130.716 39.9467 131.836 38.48C132.983 37.0133 133.89 35.1333 134.556 32.84C135.25 30.5467 135.596 28.3733 135.596 26.32C135.596 24.24 135.516 22.56 135.356 21.28C136.156 21.2267 136.716 21.2 137.036 21.2C138.396 21.2 139.423 21.4533 140.116 21.96C140.81 22.4667 141.156 23.3733 141.156 24.68C141.156 25.1867 140.836 27.2533 140.196 30.88C139.556 34.48 139.236 37.3733 139.236 39.56C139.236 41.72 139.65 43.64 140.476 45.32C138.476 44.9733 137.01 44.24 136.076 43.12C135.143 41.9733 134.676 40.3333 134.676 38.2C134.676 37.8267 134.73 37.1067 134.836 36.04C134.116 38.5733 132.836 40.6133 130.996 42.16C129.156 43.7067 127.343 44.48 125.556 44.48C123.796 44.48 122.37 43.8267 121.276 42.52C120.21 41.1867 119.676 39.3067 119.676 36.88C119.676 34.4533 120.103 32.1067 120.956 29.84C121.836 27.5467 123.143 25.6133 124.876 24.04C126.61 22.44 128.543 21.64 130.676 21.64C131.903 21.64 133.156 21.9333 134.436 22.52C131.743 23.48 129.596 25.3733 127.996 28.2C126.396 31 125.596 33.7467 125.596 36.44ZM149.307 5.72C151.2 6.22667 152.494 7.14667 153.187 8.48C153.907 9.78666 154.267 11.24 154.267 12.84C154.267 14.44 154.014 17.1733 153.507 21.04C153 24.88 152.654 27.9467 152.467 30.24C153.267 27.3867 154.4 25.12 155.867 23.44C157.36 21.76 158.96 20.92 160.667 20.92C162.374 20.92 163.84 21.7333 165.067 23.36C166.32 24.9867 166.947 27.0667 166.947 29.6C166.947 33.52 165.894 36.9067 163.787 39.76C161.707 42.5867 159.32 44 156.627 44C155.694 44 154.76 43.7867 153.827 43.36C154.974 43.04 156.014 42.3867 156.947 41.4C157.88 40.4133 158.64 39.28 159.227 38C160.427 35.3333 161.027 32.6667 161.027 30C161.027 28.6933 160.774 27.5467 160.267 26.56C159.787 25.5733 159.134 25.08 158.307 25.08C156.974 25.08 155.614 26.44 154.227 29.16C152.867 31.88 152.147 35.2667 152.067 39.32V40.08C152.12 41.0133 152.347 42.56 152.747 44.72C148.907 43.84 146.987 41.08 146.987 36.44C146.987 34.5467 147.427 30.7333 148.307 25C149.214 19.2667 149.667 15.08 149.667 12.44C149.667 9.8 149.547 7.56 149.307 5.72ZM183.612 23.96C181.879 23.96 180.332 25.1333 178.972 27.48C177.612 29.8 176.932 32.12 176.932 34.44C176.932 39.2933 178.185 41.72 180.692 41.72C182.479 41.72 183.932 40.56 185.052 38.24C186.172 35.8933 186.732 33.2667 186.732 30.36C186.732 26.0933 185.692 23.96 183.612 23.96ZM180.212 20.36C180.505 20.36 180.772 20.4533 181.012 20.64C181.279 20.8 181.412 20.9733 181.412 21.16C178.719 23.0267 177.105 25.6267 176.572 28.96C177.132 27.4667 177.812 26.1733 178.612 25.08C179.439 23.9867 180.292 23.16 181.172 22.6C182.852 21.56 184.492 21.04 186.092 21.04C187.692 21.04 189.052 21.8267 190.172 23.4C191.292 24.9733 191.852 27.08 191.852 29.72C191.852 32.68 191.252 35.4 190.052 37.88C188.719 40.68 186.825 42.6133 184.372 43.68C182.985 44.2933 181.465 44.6 179.812 44.6C177.492 44.6 175.465 43.7067 173.732 41.92C172.025 40.1067 171.172 37.52 171.172 34.16C171.172 30.7733 171.999 27.8 173.652 25.24C175.305 22.6533 177.492 21.0267 180.212 20.36ZM202.539 31C203.499 27.5333 204.646 24.9867 205.979 23.36C207.339 21.7067 208.593 20.88 209.739 20.88C210.913 20.88 211.793 21.32 212.379 22.2C212.966 23.0533 213.259 24.1733 213.259 25.56C213.259 26.92 212.846 28.1733 212.019 29.32C211.219 30.4667 210.113 31.04 208.699 31.04C208.326 31.04 207.886 30.9333 207.379 30.72C208.206 29.68 208.619 28.4267 208.619 26.96C208.619 26.1067 208.273 25.68 207.579 25.68C207.073 25.68 206.526 26.04 205.939 26.76C205.353 27.4533 204.793 28.4267 204.259 29.68C203.726 30.9067 203.273 32.4933 202.899 34.44C202.553 36.36 202.379 38.4133 202.379 40.6C202.379 40.8667 202.446 42 202.579 44C201.726 44.0533 201.179 44.08 200.939 44.08C199.419 44.08 198.326 43.8133 197.659 43.28C196.993 42.7467 196.659 41.8667 196.659 40.64C196.659 40.1067 196.939 38.0533 197.499 34.48C198.059 30.9067 198.339 28.0667 198.339 25.96C198.339 23.8267 198.113 21.8667 197.659 20.08C199.606 20.6933 200.966 21.5733 201.739 22.72C202.513 23.84 202.899 25.16 202.899 26.68C202.899 28.1733 202.779 29.6133 202.539 31ZM106.4 72.48C105.2 72.48 104.2 72.8533 103.4 73.6C102.6 74.32 102.2 75.3467 102.2 76.68C102.2 78.0133 102.533 79.2133 103.2 80.28C103.893 81.32 104.733 82.2133 105.72 82.96C106.733 83.68 107.827 84.4667 109 85.32C110.2 86.1733 111.293 86.9867 112.28 87.76C113.293 88.5067 114.133 89.44 114.8 90.56C115.493 91.68 115.84 92.8667 115.84 94.12C115.84 96.6 114.827 98.7067 112.8 100.44C110.773 102.147 108.107 103 104.8 103C101.52 103 98.92 102.293 97 100.88C95.08 99.4667 94.12 97.8667 94.12 96.08C94.12 94.2933 94.6533 92.9067 95.72 91.92C96.7867 90.9067 98.16 90.4 99.84 90.4C100.32 90.4 100.773 90.4533 101.2 90.56C100.373 91.7867 99.96 93.12 99.96 94.56C99.96 95.9733 100.4 97.2 101.28 98.24C102.16 99.2533 103.32 99.76 104.76 99.76C106.227 99.76 107.453 99.3867 108.44 98.64C109.427 97.8667 109.92 96.8933 109.92 95.72C109.92 94.52 109.587 93.4667 108.92 92.56C108.253 91.6533 107.427 90.88 106.44 90.24C105.453 89.5733 104.373 88.8267 103.2 88C102.027 87.1467 100.947 86.2933 99.96 85.44C98.9733 84.5867 98.1467 83.5067 97.48 82.2C96.8133 80.8667 96.48 79.4133 96.48 77.84C96.48 75.3067 97.4 73.2933 99.24 71.8C101.08 70.28 103.56 69.52 106.68 69.52C109.8 69.52 112.16 70.2267 113.76 71.64C115.387 73.0267 116.2 74.52 116.2 76.12C116.2 77.6933 115.693 79.0267 114.68 80.12C113.667 81.1867 112.293 81.72 110.56 81.72C109.973 81.72 109.4 81.6667 108.84 81.56C110.147 80.1733 110.8 78.72 110.8 77.2C110.8 75.6533 110.373 74.48 109.52 73.68C108.667 72.88 107.627 72.48 106.4 72.48ZM129.796 92.16C128.516 92.16 127.263 92.0133 126.036 91.72C126.01 91.9867 125.996 92.4 125.996 92.96C125.996 95.1733 126.41 96.84 127.236 97.96C128.063 99.08 129.05 99.64 130.196 99.64C131.343 99.64 132.436 99.2933 133.476 98.6C134.516 97.9067 135.423 96.9467 136.196 95.72C137.156 95.9333 137.636 96.4267 137.636 97.2C135.29 100.8 132.263 102.6 128.556 102.6C126.316 102.6 124.356 101.747 122.676 100.04C120.996 98.3067 120.156 95.9067 120.156 92.84C120.156 90.5467 120.596 88.3733 121.476 86.32C122.356 84.24 123.756 82.4933 125.676 81.08C127.596 79.64 129.716 78.92 132.036 78.92C134.383 78.92 136.103 79.4533 137.196 80.52C138.29 81.5867 138.836 82.9867 138.836 84.72C138.836 87.2267 137.956 89.0933 136.196 90.32C134.463 91.5467 132.33 92.16 129.796 92.16ZM131.476 81.4C130.116 81.4 128.97 82.24 128.036 83.92C127.103 85.6 126.49 87.64 126.196 90.04H126.796C129.116 90.04 130.823 89.44 131.916 88.24C133.036 87.04 133.596 85.6 133.596 83.92C133.596 83.2267 133.41 82.64 133.036 82.16C132.69 81.6533 132.17 81.4 131.476 81.4ZM143.939 101C143.619 100.467 143.419 99.96 143.339 99.48C143.259 98.9733 143.219 98.2 143.219 97.16C143.219 96.12 143.659 92.0267 144.539 84.88C145.446 77.7333 145.899 72.8267 145.899 70.16C145.899 67.4933 145.739 65.76 145.419 64.96C147.419 65.4933 148.779 66.3067 149.499 67.4C150.246 68.4667 150.619 69.9867 150.619 71.96C150.619 73.1333 150.232 76.9467 149.459 83.4C148.686 89.8533 148.299 95.0533 148.299 99C148.299 99.8533 148.352 101.053 148.459 102.6C146.032 102.493 144.526 101.96 143.939 101ZM164.132 92.16C162.852 92.16 161.599 92.0133 160.372 91.72C160.346 91.9867 160.332 92.4 160.332 92.96C160.332 95.1733 160.746 96.84 161.572 97.96C162.399 99.08 163.386 99.64 164.532 99.64C165.679 99.64 166.772 99.2933 167.812 98.6C168.852 97.9067 169.759 96.9467 170.532 95.72C171.492 95.9333 171.972 96.4267 171.972 97.2C169.626 100.8 166.599 102.6 162.892 102.6C160.652 102.6 158.692 101.747 157.012 100.04C155.332 98.3067 154.492 95.9067 154.492 92.84C154.492 90.5467 154.932 88.3733 155.812 86.32C156.692 84.24 158.092 82.4933 160.012 81.08C161.932 79.64 164.052 78.92 166.372 78.92C168.719 78.92 170.439 79.4533 171.532 80.52C172.626 81.5867 173.172 82.9867 173.172 84.72C173.172 87.2267 172.292 89.0933 170.532 90.32C168.799 91.5467 166.666 92.16 164.132 92.16ZM165.812 81.4C164.452 81.4 163.306 82.24 162.372 83.92C161.439 85.6 160.826 87.64 160.532 90.04H161.132C163.452 90.04 165.159 89.44 166.252 88.24C167.372 87.04 167.932 85.6 167.932 83.92C167.932 83.2267 167.746 82.64 167.372 82.16C167.026 81.6533 166.506 81.4 165.812 81.4ZM182.595 92.96C182.595 97.4133 183.902 99.64 186.515 99.64C187.528 99.64 188.555 99.2933 189.595 98.6C190.635 97.9067 191.542 96.9467 192.315 95.72C193.275 95.9333 193.755 96.4267 193.755 97.2C192.635 99.1467 191.262 100.533 189.635 101.36C188.008 102.187 186.382 102.6 184.755 102.6C182.568 102.6 180.702 101.8 179.155 100.2C177.635 98.5733 176.875 96.2267 176.875 93.16C176.875 89.24 177.955 85.8933 180.115 83.12C182.275 80.32 185.195 78.92 188.875 78.92C190.928 78.92 192.475 79.4267 193.515 80.44C194.555 81.4267 195.075 82.6133 195.075 84C195.075 85.36 194.648 86.5467 193.795 87.56C192.968 88.5733 191.902 89.08 190.595 89.08C189.955 89.08 189.315 88.9467 188.675 88.68C189.075 88.2267 189.448 87.52 189.795 86.56C190.142 85.5733 190.315 84.6667 190.315 83.84C190.315 82.2133 189.608 81.4 188.195 81.4C186.542 81.4 185.195 82.6133 184.155 85.04C183.115 87.4667 182.595 90.1067 182.595 92.96ZM207.712 83.2C207.579 84.16 207.299 85.8267 206.872 88.2C205.965 93.24 205.512 96.9733 205.512 99.4C205.512 101.827 205.699 103.453 206.072 104.28C204.019 103.747 202.605 102.933 201.832 101.84C201.059 100.72 200.672 99.1467 200.672 97.12C200.672 95.3333 200.952 92.8933 201.512 89.8C202.072 86.68 202.432 84.5733 202.592 83.48C201.205 83.72 199.725 84.1867 198.152 84.88C198.099 84.2933 198.072 83.8533 198.072 83.56C198.072 82.1467 198.499 81.1867 199.352 80.68C200.205 80.1467 201.432 79.8667 203.032 79.84C203.219 77.84 203.312 76.4 203.312 75.52C203.312 74.64 203.299 73.9067 203.272 73.32C203.272 72.7333 203.272 72.2933 203.272 72C205.032 72.1867 206.312 72.72 207.112 73.6C207.912 74.4533 208.312 75.68 208.312 77.28C208.312 77.92 208.245 78.8133 208.112 79.96C210.352 79.9067 211.992 79.4667 213.032 78.64C213.085 79.1733 213.112 79.5733 213.112 79.84C213.112 81.12 212.885 82.0133 212.432 82.52C211.979 83 211.219 83.24 210.152 83.24C209.085 83.24 208.272 83.2267 207.712 83.2Z" fill="#F24E1E"/>
</svg>
