<svg width="58" height="58" viewBox="0 0 58 58" fill="none" xmlns="http://www.w3.org/2000/svg">
<path d="M29.29 30.885C29.0974 30.8608 28.9026 30.8608 28.71 30.885C26.6605 30.816 24.7182 29.9531 23.2932 28.4785C21.8682 27.0039 21.0722 25.0331 21.0733 22.9825C21.0733 18.6083 24.6017 15.0558 29 15.0558C31.077 15.0522 33.0722 15.865 34.5555 17.3188C36.0388 18.7726 36.8914 20.7512 36.9294 22.8278C36.9675 24.9044 36.1879 26.9128 34.7589 28.42C33.3298 29.9273 31.3657 30.8125 29.29 30.885ZM45.2883 46.835C40.8472 50.9169 35.0321 53.1774 29 53.1667C22.7167 53.1667 17.0133 50.7742 12.7117 46.835C12.9533 44.5633 14.4033 42.34 16.9892 40.6C23.6108 36.2017 34.4375 36.2017 41.0108 40.6C43.5967 42.34 45.0467 44.5633 45.2883 46.835Z" stroke="white" stroke-width="2" stroke-linecap="round" stroke-linejoin="round"/>
<path d="M28.9999 53.1667C42.3472 53.1667 53.1666 42.3473 53.1666 29C53.1666 15.6528 42.3472 4.83334 28.9999 4.83334C15.6527 4.83334 4.83325 15.6528 4.83325 29C4.83325 42.3473 15.6527 53.1667 28.9999 53.1667Z" stroke="white" stroke-width="2" stroke-linecap="round" stroke-linejoin="round"/>
</svg>
